<mxfile host="www.draw.io" modified="2019-11-17T23:17:48.914Z" agent="Mozilla/5.0 (Windows NT 10.0; Win64; x64) AppleWebKit/537.36 (KHTML, like Gecko) Chrome/80.0.3956.0 Safari/537.36 Edg/80.0.328.4" etag="AioiyOoiM4CcsqYlxdeh" version="12.2.6" type="github" pages="2">
  <diagram id="5FdU_nwNMYLaNPy2swL2" name="Page-1">
    <mxGraphModel dx="784" dy="615" grid="1" gridSize="10" guides="1" tooltips="1" connect="1" arrows="1" fold="1" page="1" pageScale="1" pageWidth="850" pageHeight="1100" math="0" shadow="0">
      <root>
        <mxCell id="0"/>
        <mxCell id="1" parent="0"/>
        <mxCell id="kyh_rWp-DKm-uH9XOieG-1" value="fluxions-deps" style="rounded=1;whiteSpace=wrap;html=1;" parent="1" vertex="1">
          <mxGeometry x="160" y="200" width="120" height="60" as="geometry"/>
        </mxCell>
        <mxCell id="kyh_rWp-DKm-uH9XOieG-2" value="fluxions-gte" style="rounded=1;whiteSpace=wrap;html=1;" parent="1" vertex="1">
          <mxGeometry x="320" y="200" width="120" height="60" as="geometry"/>
        </mxCell>
        <mxCell id="kyh_rWp-DKm-uH9XOieG-3" value="hatchetfish" style="rounded=1;whiteSpace=wrap;html=1;" parent="1" vertex="1">
          <mxGeometry x="480" y="200" width="120" height="60" as="geometry"/>
        </mxCell>
        <mxCell id="kyh_rWp-DKm-uH9XOieG-4" value="viperfish" style="rounded=1;whiteSpace=wrap;html=1;" parent="1" vertex="1">
          <mxGeometry x="640" y="100" width="120" height="60" as="geometry"/>
        </mxCell>
        <mxCell id="kyh_rWp-DKm-uH9XOieG-5" value="unicornfish" style="rounded=1;whiteSpace=wrap;html=1;" parent="1" vertex="1">
          <mxGeometry y="100" width="120" height="60" as="geometry"/>
        </mxCell>
        <mxCell id="kyh_rWp-DKm-uH9XOieG-9" style="edgeStyle=orthogonalEdgeStyle;rounded=0;orthogonalLoop=1;jettySize=auto;html=1;exitX=0.5;exitY=0;exitDx=0;exitDy=0;entryX=0.5;entryY=1;entryDx=0;entryDy=0;" parent="1" source="kyh_rWp-DKm-uH9XOieG-6" target="kyh_rWp-DKm-uH9XOieG-2" edge="1">
          <mxGeometry relative="1" as="geometry">
            <mxPoint x="400" y="300" as="targetPoint"/>
          </mxGeometry>
        </mxCell>
        <mxCell id="kyh_rWp-DKm-uH9XOieG-6" value="toadfish" style="rounded=1;whiteSpace=wrap;html=1;" parent="1" vertex="1">
          <mxGeometry x="320" y="360" width="120" height="60" as="geometry"/>
        </mxCell>
        <mxCell id="kyh_rWp-DKm-uH9XOieG-12" style="edgeStyle=orthogonalEdgeStyle;rounded=0;orthogonalLoop=1;jettySize=auto;html=1;exitX=0.25;exitY=1;exitDx=0;exitDy=0;entryX=0.5;entryY=0;entryDx=0;entryDy=0;" parent="1" source="kyh_rWp-DKm-uH9XOieG-7" target="kyh_rWp-DKm-uH9XOieG-1" edge="1">
          <mxGeometry relative="1" as="geometry"/>
        </mxCell>
        <mxCell id="kyh_rWp-DKm-uH9XOieG-13" style="edgeStyle=orthogonalEdgeStyle;rounded=0;orthogonalLoop=1;jettySize=auto;html=1;exitX=0.5;exitY=1;exitDx=0;exitDy=0;entryX=0.5;entryY=0;entryDx=0;entryDy=0;" parent="1" source="kyh_rWp-DKm-uH9XOieG-7" target="kyh_rWp-DKm-uH9XOieG-2" edge="1">
          <mxGeometry relative="1" as="geometry"/>
        </mxCell>
        <mxCell id="kyh_rWp-DKm-uH9XOieG-14" style="edgeStyle=orthogonalEdgeStyle;rounded=0;orthogonalLoop=1;jettySize=auto;html=1;exitX=0.75;exitY=1;exitDx=0;exitDy=0;entryX=0.5;entryY=0;entryDx=0;entryDy=0;" parent="1" source="kyh_rWp-DKm-uH9XOieG-7" target="kyh_rWp-DKm-uH9XOieG-3" edge="1">
          <mxGeometry relative="1" as="geometry"/>
        </mxCell>
        <mxCell id="kyh_rWp-DKm-uH9XOieG-7" value="fluxions" style="rounded=1;whiteSpace=wrap;html=1;" parent="1" vertex="1">
          <mxGeometry x="160" y="100" width="440" height="60" as="geometry"/>
        </mxCell>
        <mxCell id="kyh_rWp-DKm-uH9XOieG-11" style="edgeStyle=orthogonalEdgeStyle;rounded=0;orthogonalLoop=1;jettySize=auto;html=1;exitX=0.5;exitY=0;exitDx=0;exitDy=0;entryX=0.75;entryY=1;entryDx=0;entryDy=0;" parent="1" source="kyh_rWp-DKm-uH9XOieG-10" target="kyh_rWp-DKm-uH9XOieG-2" edge="1">
          <mxGeometry relative="1" as="geometry"/>
        </mxCell>
        <mxCell id="kyh_rWp-DKm-uH9XOieG-10" value="sunfish" style="rounded=1;whiteSpace=wrap;html=1;" parent="1" vertex="1">
          <mxGeometry x="480" y="360" width="120" height="60" as="geometry"/>
        </mxCell>
        <mxCell id="kyh_rWp-DKm-uH9XOieG-16" style="edgeStyle=orthogonalEdgeStyle;rounded=0;orthogonalLoop=1;jettySize=auto;html=1;exitX=0.5;exitY=1;exitDx=0;exitDy=0;entryX=0.5;entryY=0;entryDx=0;entryDy=0;" parent="1" source="kyh_rWp-DKm-uH9XOieG-15" target="kyh_rWp-DKm-uH9XOieG-7" edge="1">
          <mxGeometry relative="1" as="geometry"/>
        </mxCell>
        <mxCell id="kyh_rWp-DKm-uH9XOieG-17" style="edgeStyle=orthogonalEdgeStyle;rounded=0;orthogonalLoop=1;jettySize=auto;html=1;exitX=0.75;exitY=1;exitDx=0;exitDy=0;entryX=0.5;entryY=0;entryDx=0;entryDy=0;" parent="1" source="kyh_rWp-DKm-uH9XOieG-15" target="kyh_rWp-DKm-uH9XOieG-4" edge="1">
          <mxGeometry relative="1" as="geometry"/>
        </mxCell>
        <mxCell id="kyh_rWp-DKm-uH9XOieG-18" style="edgeStyle=orthogonalEdgeStyle;rounded=0;orthogonalLoop=1;jettySize=auto;html=1;exitX=0.25;exitY=1;exitDx=0;exitDy=0;entryX=0.5;entryY=0;entryDx=0;entryDy=0;" parent="1" source="kyh_rWp-DKm-uH9XOieG-15" target="kyh_rWp-DKm-uH9XOieG-5" edge="1">
          <mxGeometry relative="1" as="geometry"/>
        </mxCell>
        <mxCell id="kyh_rWp-DKm-uH9XOieG-15" value="SSPHH" style="rounded=1;whiteSpace=wrap;html=1;" parent="1" vertex="1">
          <mxGeometry width="760" height="60" as="geometry"/>
        </mxCell>
      </root>
    </mxGraphModel>
  </diagram>
  <diagram id="2iBOgvd2q9fVja5jjvM0" name="SSPHH Dataflow">
    <mxGraphModel dx="784" dy="1715" grid="1" gridSize="10" guides="1" tooltips="1" connect="1" arrows="1" fold="1" page="1" pageScale="1" pageWidth="850" pageHeight="1100" math="0" shadow="0">
      <root>
        <mxCell id="nHucH8XXcsb7mAEXW-Pv-0"/>
        <mxCell id="nHucH8XXcsb7mAEXW-Pv-1" parent="nHucH8XXcsb7mAEXW-Pv-0"/>
        <mxCell id="nHucH8XXcsb7mAEXW-Pv-4" value="" style="edgeStyle=orthogonalEdgeStyle;rounded=0;orthogonalLoop=1;jettySize=auto;html=1;" edge="1" parent="nHucH8XXcsb7mAEXW-Pv-1" source="nHucH8XXcsb7mAEXW-Pv-2" target="nHucH8XXcsb7mAEXW-Pv-3">
          <mxGeometry relative="1" as="geometry"/>
        </mxCell>
        <mxCell id="nHucH8XXcsb7mAEXW-Pv-12" value="" style="edgeStyle=orthogonalEdgeStyle;rounded=0;orthogonalLoop=1;jettySize=auto;html=1;" edge="1" parent="nHucH8XXcsb7mAEXW-Pv-1" source="nHucH8XXcsb7mAEXW-Pv-2" target="nHucH8XXcsb7mAEXW-Pv-11">
          <mxGeometry relative="1" as="geometry"/>
        </mxCell>
        <mxCell id="nHucH8XXcsb7mAEXW-Pv-2" value="Load Scene File" style="rounded=1;whiteSpace=wrap;html=1;" vertex="1" parent="nHucH8XXcsb7mAEXW-Pv-1">
          <mxGeometry x="80" y="120" width="120" height="60" as="geometry"/>
        </mxCell>
        <mxCell id="nHucH8XXcsb7mAEXW-Pv-16" value="" style="edgeStyle=orthogonalEdgeStyle;rounded=0;orthogonalLoop=1;jettySize=auto;html=1;" edge="1" parent="nHucH8XXcsb7mAEXW-Pv-1" source="nHucH8XXcsb7mAEXW-Pv-11" target="nHucH8XXcsb7mAEXW-Pv-15">
          <mxGeometry relative="1" as="geometry"/>
        </mxCell>
        <mxCell id="nHucH8XXcsb7mAEXW-Pv-22" value="" style="edgeStyle=orthogonalEdgeStyle;rounded=0;orthogonalLoop=1;jettySize=auto;html=1;" edge="1" parent="nHucH8XXcsb7mAEXW-Pv-1" source="nHucH8XXcsb7mAEXW-Pv-11" target="nHucH8XXcsb7mAEXW-Pv-21">
          <mxGeometry relative="1" as="geometry"/>
        </mxCell>
        <mxCell id="nHucH8XXcsb7mAEXW-Pv-11" value="Send Uf Render Request" style="rounded=1;whiteSpace=wrap;html=1;" vertex="1" parent="nHucH8XXcsb7mAEXW-Pv-1">
          <mxGeometry x="280" y="120" width="120" height="60" as="geometry"/>
        </mxCell>
        <mxCell id="nHucH8XXcsb7mAEXW-Pv-21" value="Await Uf Reply" style="rounded=1;whiteSpace=wrap;html=1;" vertex="1" parent="nHucH8XXcsb7mAEXW-Pv-1">
          <mxGeometry x="680" y="120" width="120" height="60" as="geometry"/>
        </mxCell>
        <mxCell id="nHucH8XXcsb7mAEXW-Pv-18" value="" style="edgeStyle=orthogonalEdgeStyle;rounded=0;orthogonalLoop=1;jettySize=auto;html=1;" edge="1" parent="nHucH8XXcsb7mAEXW-Pv-1" source="nHucH8XXcsb7mAEXW-Pv-15" target="nHucH8XXcsb7mAEXW-Pv-17">
          <mxGeometry relative="1" as="geometry"/>
        </mxCell>
        <mxCell id="nHucH8XXcsb7mAEXW-Pv-15" value="Start Corona" style="rounded=1;whiteSpace=wrap;html=1;" vertex="1" parent="nHucH8XXcsb7mAEXW-Pv-1">
          <mxGeometry x="280" y="260" width="120" height="60" as="geometry"/>
        </mxCell>
        <mxCell id="nHucH8XXcsb7mAEXW-Pv-20" value="" style="edgeStyle=orthogonalEdgeStyle;rounded=0;orthogonalLoop=1;jettySize=auto;html=1;" edge="1" parent="nHucH8XXcsb7mAEXW-Pv-1" source="nHucH8XXcsb7mAEXW-Pv-17" target="nHucH8XXcsb7mAEXW-Pv-19">
          <mxGeometry relative="1" as="geometry"/>
        </mxCell>
        <mxCell id="nHucH8XXcsb7mAEXW-Pv-17" value="Load EXR" style="rounded=1;whiteSpace=wrap;html=1;" vertex="1" parent="nHucH8XXcsb7mAEXW-Pv-1">
          <mxGeometry x="480" y="260" width="120" height="60" as="geometry"/>
        </mxCell>
        <mxCell id="nHucH8XXcsb7mAEXW-Pv-23" value="" style="edgeStyle=orthogonalEdgeStyle;rounded=0;orthogonalLoop=1;jettySize=auto;html=1;" edge="1" parent="nHucH8XXcsb7mAEXW-Pv-1" source="nHucH8XXcsb7mAEXW-Pv-19" target="nHucH8XXcsb7mAEXW-Pv-21">
          <mxGeometry relative="1" as="geometry"/>
        </mxCell>
        <mxCell id="nHucH8XXcsb7mAEXW-Pv-19" value="Convert to SH" style="rounded=1;whiteSpace=wrap;html=1;" vertex="1" parent="nHucH8XXcsb7mAEXW-Pv-1">
          <mxGeometry x="680" y="260" width="120" height="60" as="geometry"/>
        </mxCell>
        <mxCell id="nHucH8XXcsb7mAEXW-Pv-6" value="" style="edgeStyle=orthogonalEdgeStyle;rounded=0;orthogonalLoop=1;jettySize=auto;html=1;" edge="1" parent="nHucH8XXcsb7mAEXW-Pv-1" source="nHucH8XXcsb7mAEXW-Pv-3" target="nHucH8XXcsb7mAEXW-Pv-5">
          <mxGeometry relative="1" as="geometry"/>
        </mxCell>
        <mxCell id="nHucH8XXcsb7mAEXW-Pv-3" value="Recursively Load OBJ" style="rounded=1;whiteSpace=wrap;html=1;" vertex="1" parent="nHucH8XXcsb7mAEXW-Pv-1">
          <mxGeometry x="80" y="-20" width="120" height="60" as="geometry"/>
        </mxCell>
        <mxCell id="nHucH8XXcsb7mAEXW-Pv-8" value="" style="edgeStyle=orthogonalEdgeStyle;rounded=0;orthogonalLoop=1;jettySize=auto;html=1;" edge="1" parent="nHucH8XXcsb7mAEXW-Pv-1" source="nHucH8XXcsb7mAEXW-Pv-5" target="nHucH8XXcsb7mAEXW-Pv-7">
          <mxGeometry relative="1" as="geometry"/>
        </mxCell>
        <mxCell id="nHucH8XXcsb7mAEXW-Pv-5" value="Recursively Load MTL" style="rounded=1;whiteSpace=wrap;html=1;" vertex="1" parent="nHucH8XXcsb7mAEXW-Pv-1">
          <mxGeometry x="280" y="-20" width="120" height="60" as="geometry"/>
        </mxCell>
        <mxCell id="nHucH8XXcsb7mAEXW-Pv-10" value="" style="edgeStyle=orthogonalEdgeStyle;rounded=0;orthogonalLoop=1;jettySize=auto;html=1;" edge="1" parent="nHucH8XXcsb7mAEXW-Pv-1" source="nHucH8XXcsb7mAEXW-Pv-7" target="nHucH8XXcsb7mAEXW-Pv-9">
          <mxGeometry relative="1" as="geometry"/>
        </mxCell>
        <mxCell id="nHucH8XXcsb7mAEXW-Pv-7" value="Recursively Load Textures" style="rounded=1;whiteSpace=wrap;html=1;" vertex="1" parent="nHucH8XXcsb7mAEXW-Pv-1">
          <mxGeometry x="480" y="-20" width="120" height="60" as="geometry"/>
        </mxCell>
        <mxCell id="nHucH8XXcsb7mAEXW-Pv-9" value="Recursively Load SH" style="rounded=1;whiteSpace=wrap;html=1;" vertex="1" parent="nHucH8XXcsb7mAEXW-Pv-1">
          <mxGeometry x="680" y="-20" width="120" height="60" as="geometry"/>
        </mxCell>
      </root>
    </mxGraphModel>
  </diagram>
</mxfile>
